<svg width="1600" height="1200" viewBox="0 0 1600 1200" fill="none" xmlns="http://www.w3.org/2000/svg">
  <defs>
    <linearGradient id="bg" x1="0" y1="0" x2="1600" y2="1200" gradientUnits="userSpaceOnUse">
      <stop stop-color="#F7F1E7"/>
      <stop offset="1" stop-color="#E7DDCC"/>
    </linearGradient>
    <linearGradient id="hero" x1="588" y1="186" x2="1428" y2="358" gradientUnits="userSpaceOnUse">
      <stop stop-color="#1B2744"/>
      <stop offset="0.52" stop-color="#1F355B"/>
      <stop offset="1" stop-color="#31425E"/>
    </linearGradient>
  </defs>
  <rect width="1600" height="1200" rx="48" fill="url(#bg)"/>
  <rect x="48" y="48" width="1504" height="88" rx="28" fill="#151515"/>
  <text x="112" y="100" fill="#F7F1E7" font-family="Georgia, serif" font-size="30" font-weight="700">VedaSuite AI</text>
  <rect x="312" y="156" width="1240" height="820" rx="36" fill="#FAF6EF"/>
  <rect x="312" y="156" width="272" height="820" rx="36" fill="#F3ECE0"/>
  <text x="356" y="232" fill="#1E1E1E" font-family="Georgia, serif" font-size="48" font-weight="700">AI Pricing Strategy</text>
  <text x="358" y="282" fill="#756B5E" font-family="Arial, sans-serif" font-size="22">Margin-aware pricing powered by demand and competitor movement.</text>
  <rect x="350" y="346" width="194" height="56" rx="18" fill="#FFFFFF"/>
  <text x="384" y="382" fill="#1B1B1B" font-family="Arial, sans-serif" font-size="26" font-weight="700">Simulation</text>
  <text x="360" y="462" fill="#1C1C1C" font-family="Arial, sans-serif" font-size="24">Recommendations</text>
  <text x="360" y="522" fill="#1C1C1C" font-family="Arial, sans-serif" font-size="24">Approvals</text>
  <text x="360" y="582" fill="#1C1C1C" font-family="Arial, sans-serif" font-size="24">Shopify publish</text>
  <rect x="620" y="196" width="872" height="154" rx="32" fill="url(#hero)"/>
  <text x="660" y="252" fill="#FFF6E6" font-family="Georgia, serif" font-size="52" font-weight="700">Price with confidence</text>
  <text x="660" y="302" fill="#E6DFC8" font-family="Arial, sans-serif" font-size="24">Blend competitor movements, live sales velocity, and merchant margins into actionable price updates.</text>
  <rect x="660" y="386" width="250" height="124" rx="24" fill="#FFFFFF"/>
  <rect x="928" y="386" width="250" height="124" rx="24" fill="#FFFFFF"/>
  <rect x="1196" y="386" width="250" height="124" rx="24" fill="#FFFFFF"/>
  <text x="690" y="430" fill="#43362F" font-family="Arial, sans-serif" font-size="20" font-weight="700">Suggestions ready</text>
  <text x="690" y="486" fill="#161616" font-family="Georgia, serif" font-size="52" font-weight="700">18</text>
  <text x="958" y="430" fill="#43362F" font-family="Arial, sans-serif" font-size="20" font-weight="700">Avg margin uplift</text>
  <text x="958" y="486" fill="#161616" font-family="Georgia, serif" font-size="52" font-weight="700">+11%</text>
  <text x="1226" y="430" fill="#43362F" font-family="Arial, sans-serif" font-size="20" font-weight="700">Variants updated</text>
  <text x="1226" y="486" fill="#161616" font-family="Georgia, serif" font-size="52" font-weight="700">42</text>
  <rect x="660" y="552" width="786" height="340" rx="28" fill="#FFFFFF"/>
  <text x="694" y="604" fill="#181818" font-family="Georgia, serif" font-size="34" font-weight="700">Top recommendation set</text>
  <rect x="694" y="640" width="718" height="68" rx="18" fill="#FBF7F0"/>
  <rect x="694" y="728" width="718" height="68" rx="18" fill="#FBF7F0"/>
  <rect x="694" y="816" width="718" height="68" rx="18" fill="#FBF7F0"/>
  <text x="722" y="683" fill="#1C1C1C" font-family="Arial, sans-serif" font-size="24" font-weight="700">Premium Herbal Set</text>
  <text x="1012" y="683" fill="#74695E" font-family="Arial, sans-serif" font-size="22">$79 → $84 • margin +11%</text>
  <rect x="1234" y="654" width="144" height="40" rx="20" fill="#D3F2D7"/>
  <text x="1260" y="681" fill="#21572A" font-family="Arial, sans-serif" font-size="20" font-weight="700">Publish</text>
  <text x="722" y="771" fill="#1C1C1C" font-family="Arial, sans-serif" font-size="24" font-weight="700">Glow Tea Bundle</text>
  <text x="1012" y="771" fill="#74695E" font-family="Arial, sans-serif" font-size="22">$42 → $46 • margin +9%</text>
  <rect x="1234" y="742" width="144" height="40" rx="20" fill="#D3F2D7"/>
  <text x="1260" y="769" fill="#21572A" font-family="Arial, sans-serif" font-size="20" font-weight="700">Publish</text>
  <text x="722" y="859" fill="#1C1C1C" font-family="Arial, sans-serif" font-size="24" font-weight="700">Daily Calm Drops</text>
  <text x="1012" y="859" fill="#74695E" font-family="Arial, sans-serif" font-size="22">$24 → $26 • margin +8%</text>
  <rect x="1234" y="830" width="144" height="40" rx="20" fill="#D3F2D7"/>
  <text x="1260" y="857" fill="#21572A" font-family="Arial, sans-serif" font-size="20" font-weight="700">Publish</text>
</svg>
