<svg width="1600" height="1200" viewBox="0 0 1600 1200" fill="none" xmlns="http://www.w3.org/2000/svg">
  <defs>
    <linearGradient id="bg" x1="0" y1="0" x2="1600" y2="1200" gradientUnits="userSpaceOnUse">
      <stop stop-color="#F7F1E7"/>
      <stop offset="1" stop-color="#EDE4D2"/>
    </linearGradient>
    <linearGradient id="hero" x1="590" y1="192" x2="1432" y2="352" gradientUnits="userSpaceOnUse">
      <stop stop-color="#281E2E"/>
      <stop offset="0.5" stop-color="#3A2435"/>
      <stop offset="1" stop-color="#5A2E2E"/>
    </linearGradient>
  </defs>
  <rect width="1600" height="1200" rx="48" fill="url(#bg)"/>
  <rect x="48" y="48" width="1504" height="88" rx="28" fill="#151515"/>
  <text x="112" y="100" fill="#F7F1E7" font-family="Georgia, serif" font-size="30" font-weight="700">VedaSuite AI</text>
  <rect x="312" y="156" width="1240" height="820" rx="36" fill="#FAF6EF"/>
  <rect x="312" y="156" width="272" height="820" rx="36" fill="#F3ECE0"/>
  <text x="356" y="232" fill="#1E1E1E" font-family="Georgia, serif" font-size="48" font-weight="700">Fraud Intelligence</text>
  <text x="358" y="282" fill="#756B5E" font-family="Arial, sans-serif" font-size="22">Review risky orders before they become losses.</text>
  <rect x="350" y="346" width="194" height="56" rx="18" fill="#FFFFFF"/>
  <text x="382" y="382" fill="#1B1B1B" font-family="Arial, sans-serif" font-size="26" font-weight="700">High risk</text>
  <text x="360" y="462" fill="#1C1C1C" font-family="Arial, sans-serif" font-size="24">Manual review</text>
  <text x="360" y="522" fill="#1C1C1C" font-family="Arial, sans-serif" font-size="24">Chargeback watch</text>
  <text x="360" y="582" fill="#1C1C1C" font-family="Arial, sans-serif" font-size="24">Shared network</text>
  <rect x="620" y="196" width="872" height="154" rx="32" fill="url(#hero)"/>
  <text x="660" y="252" fill="#FFF6E6" font-family="Georgia, serif" font-size="52" font-weight="700">Risk command center</text>
  <text x="660" y="302" fill="#EEDBC4" font-family="Arial, sans-serif" font-size="24">AI flags payment abuse, serial returners, stolen-card patterns, and suspicious order velocity.</text>
  <rect x="660" y="386" width="250" height="124" rx="24" fill="#FFFFFF"/>
  <rect x="928" y="386" width="250" height="124" rx="24" fill="#FFFFFF"/>
  <rect x="1196" y="386" width="250" height="124" rx="24" fill="#FFFFFF"/>
  <text x="690" y="430" fill="#43362F" font-family="Arial, sans-serif" font-size="20" font-weight="700">High-risk orders</text>
  <text x="690" y="486" fill="#161616" font-family="Georgia, serif" font-size="52" font-weight="700">12</text>
  <text x="958" y="430" fill="#43362F" font-family="Arial, sans-serif" font-size="20" font-weight="700">Serial returners</text>
  <text x="958" y="486" fill="#161616" font-family="Georgia, serif" font-size="52" font-weight="700">5</text>
  <text x="1226" y="430" fill="#43362F" font-family="Arial, sans-serif" font-size="20" font-weight="700">Manual reviews</text>
  <text x="1226" y="486" fill="#161616" font-family="Georgia, serif" font-size="52" font-weight="700">8</text>
  <rect x="660" y="552" width="786" height="340" rx="28" fill="#FFFFFF"/>
  <text x="694" y="604" fill="#181818" font-family="Georgia, serif" font-size="34" font-weight="700">Active risk queue</text>
  <rect x="694" y="640" width="718" height="68" rx="18" fill="#FBF7F0"/>
  <rect x="694" y="728" width="718" height="68" rx="18" fill="#FBF7F0"/>
  <rect x="694" y="816" width="718" height="68" rx="18" fill="#FBF7F0"/>
  <text x="722" y="683" fill="#1C1C1C" font-family="Arial, sans-serif" font-size="24" font-weight="700">Order #1048</text>
  <text x="886" y="683" fill="#74695E" font-family="Arial, sans-serif" font-size="22">Wardrobing signal, IP mismatch, refund history</text>
  <rect x="1250" y="654" width="126" height="40" rx="20" fill="#FBE2B0"/>
  <text x="1290" y="681" fill="#7A4E08" font-family="Arial, sans-serif" font-size="22" font-weight="700">91</text>
  <text x="722" y="771" fill="#1C1C1C" font-family="Arial, sans-serif" font-size="24" font-weight="700">Order #1044</text>
  <text x="886" y="771" fill="#74695E" font-family="Arial, sans-serif" font-size="22">Stolen card pattern, risky device fingerprint</text>
  <rect x="1250" y="742" width="126" height="40" rx="20" fill="#FBE2B0"/>
  <text x="1290" y="769" fill="#7A4E08" font-family="Arial, sans-serif" font-size="22" font-weight="700">84</text>
  <text x="722" y="859" fill="#1C1C1C" font-family="Arial, sans-serif" font-size="24" font-weight="700">Order #1039</text>
  <text x="886" y="859" fill="#74695E" font-family="Arial, sans-serif" font-size="22">Chargeback watchlist overlap, unusual velocity</text>
  <rect x="1250" y="830" width="126" height="40" rx="20" fill="#FBE2B0"/>
  <text x="1290" y="857" fill="#7A4E08" font-family="Arial, sans-serif" font-size="22" font-weight="700">77</text>
</svg>
