<svg width="1600" height="1200" viewBox="0 0 1600 1200" fill="none" xmlns="http://www.w3.org/2000/svg">
  <defs>
    <linearGradient id="bg" x1="123" y1="88" x2="1464" y2="1152" gradientUnits="userSpaceOnUse">
      <stop stop-color="#F7F1E7"/>
      <stop offset="1" stop-color="#E8E0D0"/>
    </linearGradient>
    <linearGradient id="hero" x1="560" y1="187" x2="1396" y2="369" gradientUnits="userSpaceOnUse">
      <stop stop-color="#1F273E"/>
      <stop offset="0.5" stop-color="#23314F"/>
      <stop offset="1" stop-color="#3C2A40"/>
    </linearGradient>
    <linearGradient id="glow" x1="734" y1="205" x2="968" y2="511" gradientUnits="userSpaceOnUse">
      <stop stop-color="#D7B476" stop-opacity="0.7"/>
      <stop offset="1" stop-color="#D7B476" stop-opacity="0"/>
    </linearGradient>
    <filter id="cardShadow" x="272" y="117" width="1288" height="866" filterUnits="userSpaceOnUse" color-interpolation-filters="sRGB">
      <feFlood flood-opacity="0" result="BackgroundImageFix"/>
      <feColorMatrix in="SourceAlpha" type="matrix" values="0 0 0 0 0 0 0 0 0 0 0 0 0 0 0 0 0 0 127 0" result="hardAlpha"/>
      <feOffset dy="18"/>
      <feGaussianBlur stdDeviation="24"/>
      <feComposite in2="hardAlpha" operator="out"/>
      <feColorMatrix type="matrix" values="0 0 0 0 0.121569 0 0 0 0 0.12549 0 0 0 0 0.172549 0 0 0 0.14 0"/>
      <feBlend mode="normal" in2="BackgroundImageFix" result="effect1_dropShadow_1_1"/>
      <feBlend mode="normal" in="SourceGraphic" in2="effect1_dropShadow_1_1" result="shape"/>
    </filter>
  </defs>
  <rect width="1600" height="1200" rx="48" fill="url(#bg)"/>
  <rect x="48" y="48" width="1504" height="88" rx="28" fill="#151515"/>
  <rect x="98" y="76" width="208" height="32" rx="16" fill="#232323"/>
  <text x="118" y="98" fill="#F7F1E7" font-family="Georgia, serif" font-size="28" font-weight="700">VedaSuite AI</text>
  <rect x="556" y="68" width="506" height="48" rx="24" fill="#2B2B2B"/>
  <text x="602" y="99" fill="#D8D8D8" font-family="Arial, sans-serif" font-size="25">Search intelligence, reports, customers</text>
  <circle cx="1388" cy="92" r="22" fill="#5EEF95"/>
  <text x="1374" y="100" fill="#12381E" font-family="Arial, sans-serif" font-size="24" font-weight="700">VA</text>
  <g filter="url(#cardShadow)">
    <rect x="310" y="154" width="1240" height="780" rx="36" fill="#FAF6EF"/>
    <rect x="310" y="154" width="268" height="780" rx="36" fill="#F4EFE5"/>
    <text x="356" y="226" fill="#2A2A2A" font-family="Georgia, serif" font-size="50" font-weight="700">VedaSuite AI</text>
    <text x="356" y="275" fill="#776B5A" font-family="Arial, sans-serif" font-size="22">AI commerce intelligence suite</text>
    <rect x="350" y="320" width="188" height="54" rx="18" fill="#FFFFFF"/>
    <text x="374" y="355" fill="#1C1C1C" font-family="Arial, sans-serif" font-size="28" font-weight="700">Dashboard</text>
    <text x="360" y="425" fill="#1C1C1C" font-family="Arial, sans-serif" font-size="24">Fraud Intelligence</text>
    <text x="360" y="486" fill="#1C1C1C" font-family="Arial, sans-serif" font-size="24">Competitor Intelligence</text>
    <text x="360" y="547" fill="#1C1C1C" font-family="Arial, sans-serif" font-size="24">AI Pricing Strategy</text>
    <text x="360" y="608" fill="#1C1C1C" font-family="Arial, sans-serif" font-size="24">AI Profit Optimization</text>
    <text x="360" y="669" fill="#1C1C1C" font-family="Arial, sans-serif" font-size="24">Shopper Credit Score</text>
    <text x="360" y="730" fill="#1C1C1C" font-family="Arial, sans-serif" font-size="24">Reports</text>
    <text x="360" y="791" fill="#1C1C1C" font-family="Arial, sans-serif" font-size="24">Subscription Plans</text>
    <rect x="618" y="194" width="872" height="168" rx="34" fill="url(#hero)"/>
    <ellipse cx="853" cy="255" rx="168" ry="128" fill="url(#glow)"/>
    <text x="658" y="255" fill="#FBF4E6" font-family="Georgia, serif" font-size="54" font-weight="700">Commerce posture at a glance</text>
    <text x="658" y="305" fill="#F0E3CA" font-family="Arial, sans-serif" font-size="24">Fraud, pricing, competitor shifts, trust signals, and profit opportunities in one suite.</text>
    <rect x="658" y="410" width="250" height="132" rx="24" fill="#FFFFFF"/>
    <rect x="926" y="410" width="250" height="132" rx="24" fill="#FFFFFF"/>
    <rect x="1194" y="410" width="250" height="132" rx="24" fill="#FFFFFF"/>
    <text x="688" y="456" fill="#3A342E" font-family="Arial, sans-serif" font-size="20" font-weight="700">Fraud alerts today</text>
    <text x="688" y="517" fill="#1A1A1A" font-family="Georgia, serif" font-size="52" font-weight="700">08</text>
    <text x="956" y="456" fill="#3A342E" font-family="Arial, sans-serif" font-size="20" font-weight="700">Price changes tracked</text>
    <text x="956" y="517" fill="#1A1A1A" font-family="Georgia, serif" font-size="52" font-weight="700">21</text>
    <text x="1224" y="456" fill="#3A342E" font-family="Arial, sans-serif" font-size="20" font-weight="700">Margin opportunities</text>
    <text x="1224" y="517" fill="#1A1A1A" font-family="Georgia, serif" font-size="52" font-weight="700">14</text>
    <rect x="658" y="576" width="520" height="290" rx="28" fill="#FFFFFF"/>
    <rect x="1200" y="576" width="244" height="290" rx="28" fill="#FFFFFF"/>
    <text x="690" y="630" fill="#1B1B1B" font-family="Georgia, serif" font-size="34" font-weight="700">Weekly intelligence report</text>
    <text x="690" y="674" fill="#6D6358" font-family="Arial, sans-serif" font-size="22">Risk signals, market movement, and pricing momentum from live Shopify and competitor data.</text>
    <path d="M700 790C754 742 806 718 856 720C914 722 954 768 1006 758C1048 750 1084 710 1138 650" stroke="#23314F" stroke-width="12" stroke-linecap="round"/>
    <circle cx="700" cy="790" r="10" fill="#23314F"/>
    <circle cx="856" cy="720" r="10" fill="#C6943B"/>
    <circle cx="1006" cy="758" r="10" fill="#6A9430"/>
    <circle cx="1138" cy="650" r="10" fill="#7D3C8B"/>
    <text x="1230" y="628" fill="#1B1B1B" font-family="Georgia, serif" font-size="28" font-weight="700">Plan</text>
    <rect x="1230" y="658" width="168" height="48" rx="24" fill="#D3F2D7"/>
    <text x="1278" y="690" fill="#21572A" font-family="Arial, sans-serif" font-size="24" font-weight="700">PRO</text>
    <text x="1230" y="748" fill="#5F564B" font-family="Arial, sans-serif" font-size="21">Live sync enabled</text>
    <text x="1230" y="786" fill="#5F564B" font-family="Arial, sans-serif" font-size="21">Billing active</text>
    <text x="1230" y="824" fill="#5F564B" font-family="Arial, sans-serif" font-size="21">Webhooks healthy</text>
  </g>
</svg>
