<svg width="1600" height="1200" viewBox="0 0 1600 1200" fill="none" xmlns="http://www.w3.org/2000/svg">
  <defs>
    <linearGradient id="bg" x1="0" y1="0" x2="1600" y2="1200" gradientUnits="userSpaceOnUse">
      <stop stop-color="#F7F1E7"/>
      <stop offset="1" stop-color="#E9DECB"/>
    </linearGradient>
    <linearGradient id="pro" x1="1138" y1="596" x2="1468" y2="982" gradientUnits="userSpaceOnUse">
      <stop stop-color="#17243F"/>
      <stop offset="1" stop-color="#33263A"/>
    </linearGradient>
  </defs>
  <rect width="1600" height="1200" rx="48" fill="url(#bg)"/>
  <rect x="48" y="48" width="1504" height="88" rx="28" fill="#151515"/>
  <text x="112" y="100" fill="#F7F1E7" font-family="Georgia, serif" font-size="30" font-weight="700">VedaSuite AI</text>
  <rect x="312" y="156" width="1240" height="860" rx="36" fill="#FAF6EF"/>
  <rect x="312" y="156" width="272" height="860" rx="36" fill="#F3ECE0"/>
  <text x="356" y="232" fill="#1E1E1E" font-family="Georgia, serif" font-size="48" font-weight="700">Subscription Plans</text>
  <text x="358" y="282" fill="#756B5E" font-family="Arial, sans-serif" font-size="22">Choose the intelligence depth that fits your store stage.</text>
  <rect x="350" y="346" width="194" height="56" rx="18" fill="#FFFFFF"/>
  <text x="380" y="382" fill="#1B1B1B" font-family="Arial, sans-serif" font-size="26" font-weight="700">Coverage</text>
  <text x="360" y="462" fill="#1C1C1C" font-family="Arial, sans-serif" font-size="24">Starter</text>
  <text x="360" y="522" fill="#1C1C1C" font-family="Arial, sans-serif" font-size="24">Growth</text>
  <text x="360" y="582" fill="#1C1C1C" font-family="Arial, sans-serif" font-size="24">Pro</text>
  <text x="650" y="240" fill="#1E1E1E" font-family="Georgia, serif" font-size="48" font-weight="700">Choose your operating mode</text>
  <rect x="648" y="312" width="260" height="164" rx="28" fill="#FFFFFF"/>
  <rect x="930" y="312" width="260" height="164" rx="28" fill="#FFFFFF"/>
  <rect x="1212" y="312" width="260" height="164" rx="28" fill="#FFFFFF"/>
  <text x="682" y="370" fill="#1E1E1E" font-family="Georgia, serif" font-size="36" font-weight="700">Trial</text>
  <text x="958" y="370" fill="#1E1E1E" font-family="Georgia, serif" font-size="36" font-weight="700">Starter</text>
  <text x="1238" y="370" fill="#1E1E1E" font-family="Georgia, serif" font-size="36" font-weight="700">Growth</text>
  <text x="682" y="420" fill="#7B6F63" font-family="Arial, sans-serif" font-size="24">3-day preview</text>
  <text x="958" y="420" fill="#7B6F63" font-family="Arial, sans-serif" font-size="24">$19/month</text>
  <text x="1238" y="420" fill="#7B6F63" font-family="Arial, sans-serif" font-size="24">$49/month</text>
  <rect x="648" y="540" width="824" height="388" rx="32" fill="url(#pro)"/>
  <text x="688" y="610" fill="#FAF1DF" font-family="Georgia, serif" font-size="54" font-weight="700">Pro unlocks the full suite</text>
  <text x="688" y="664" fill="#E6DCC9" font-family="Arial, sans-serif" font-size="24">AI pricing, shopper credit score, wardrobing intelligence, and full profit optimization.</text>
  <rect x="688" y="732" width="232" height="62" rx="20" fill="#D3F2D7"/>
  <text x="756" y="772" fill="#21572A" font-family="Arial, sans-serif" font-size="28" font-weight="700">$99/month</text>
  <rect x="950" y="732" width="250" height="62" rx="20" fill="#FBE2B0"/>
  <text x="1006" y="772" fill="#7A4E08" font-family="Arial, sans-serif" font-size="28" font-weight="700">14-day ROI</text>
  <text x="692" y="844" fill="#FAF1DF" font-family="Arial, sans-serif" font-size="26">Includes:</text>
  <text x="692" y="888" fill="#FAF1DF" font-family="Arial, sans-serif" font-size="24">• Fraud scoring and manual review workflow</text>
  <text x="692" y="926" fill="#FAF1DF" font-family="Arial, sans-serif" font-size="24">• Competitor monitoring and promotion alerts</text>
  <text x="692" y="964" fill="#FAF1DF" font-family="Arial, sans-serif" font-size="24">• AI Pricing Strategy and Profit Optimization Engine</text>
</svg>
